# xmcd
#
# Track frame offsets: 
#        150
#        15350
#        32864
#        50887
#        69229
#        85450
#        104163
#        120325
#        140088
#        161734
#        178542
#        193413
#        212484
#        230158
#        247068
#        263134
#        281516
#        297766
#        315519
#        337764
#
# Disc length: 4741 seconds
#
# Revision: 0
# Processed by: cddbd v1.5.1PL2 Copyright (c) Steve Scherf et al.
# Submitted via: ExactAudioCopy v0.95b3
#
DISCID=2f128314
DTITLE=Диана Гурцкая - Меня зовет вчерашний день
DYEAR=1900
DGENRE=Pop
TTITLE0=Быть с тобой
TTITLE1=Верность
TTITLE2=Метель
TTITLE3=Ты здесь
TTITLE4=Волшебное стекло
TTITLE5=Без тебя
TTITLE6=Первая любовь
TTITLE7=Ты знаешь, мама
TTITLE8=Сердце
TTITLE9=Зима
TTITLE10=Две луны
TTITLE11=Баллада о любви
TTITLE12=Я не люблю тебя
TTITLE13=Ты не знал
TTITLE14=Прости меня
TTITLE15=Венок
TTITLE16=Я люблю вас всех
TTITLE17=Ромео и Джульета (с И.Николаевым)
TTITLE18=Двое под одним зонтом
TTITLE19=По зову сердца
EXTD=
EXTT0=
EXTT1=
EXTT2=
EXTT3=
EXTT4=
EXTT5=
EXTT6=
EXTT7=
EXTT8=
EXTT9=
EXTT10=
EXTT11=
EXTT12=
EXTT13=
EXTT14=
EXTT15=
EXTT16=
EXTT17=
EXTT18=
EXTT19=
PLAYORDER=
